<?xml version="1.0" standalone="no"?>
<!DOCTYPE svg PUBLIC "-//W3C//DTD SVG 20010904//EN"
 "http://www.w3.org/TR/2001/REC-SVG-20010904/DTD/svg10.dtd">
<svg version="1.0" xmlns="http://www.w3.org/2000/svg"
 width="914.000000pt" height="362.000000pt" viewBox="0 0 914.000000 362.000000"
 preserveAspectRatio="xMidYMid meet">

<g transform="translate(0.000000,362.000000) scale(0.100000,-0.100000)"
fill="#000000" stroke="none">
<path d="M960 2682 c-85 -41 -234 -196 -287 -297 -56 -108 -87 -221 -80 -300
9 -114 72 -211 170 -259 97 -49 113 -28 60 75 -34 64 -38 79 -41 168 -5 117
19 228 73 336 34 69 107 165 126 165 7 0 9 -239 7 -682 -4 -666 -5 -685 -26
-758 -29 -101 -29 -120 3 -120 30 0 90 36 126 76 39 43 64 91 90 169 23 70 23
71 27 725 l3 656 -23 21 c-27 24 -106 53 -146 53 -15 -1 -52 -13 -82 -28z"/>
<path d="M3180 2700 c-16 -10 -28 -110 -29 -239 l-1 -74 -109 7 -110 7 -18
-27 c-11 -17 -17 -47 -18 -78 l0 -51 120 -5 120 -5 3 -166 c4 -243 -8 -371
-42 -444 -27 -60 -100 -165 -114 -165 -4 0 -8 24 -9 53 -3 109 -46 170 -209
293 -62 48 -114 89 -114 91 0 2 14 24 30 48 68 99 89 196 51 234 -46 46 -151
34 -220 -26 -84 -71 -107 -182 -57 -267 l27 -46 -42 -78 c-181 -329 -260 -424
-290 -346 -11 29 -13 376 -4 544 8 130 -3 152 -96 199 -97 48 -152 38 -232
-42 -58 -57 -106 -144 -167 -303 -27 -71 -50 -124 -50 -119 0 6 0 108 0 227
l1 217 -43 22 c-25 13 -63 22 -93 23 l-50 1 -6 -90 c-12 -155 -10 -760 2 -814
15 -69 43 -91 119 -91 34 0 62 5 67 13 6 6 13 37 17 67 18 140 97 392 167 533
45 91 132 217 150 217 7 0 8 -38 3 -122 -4 -68 -8 -213 -8 -323 -1 -167 2
-210 17 -259 44 -142 140 -165 269 -64 53 42 114 127 236 329 59 99 109 179
112 179 3 0 38 -30 78 -66 93 -85 132 -150 132 -222 0 -132 -81 -170 -198 -92
-33 22 -67 40 -77 40 -26 0 -72 -52 -86 -98 -11 -37 -10 -44 5 -61 46 -51 200
-84 321 -70 156 19 277 115 369 292 l35 67 7 -38 c11 -67 35 -156 50 -184 58
-113 177 -166 269 -122 47 22 120 102 152 168 15 31 30 56 33 56 3 0 13 -21
23 -47 56 -155 194 -227 340 -177 53 18 135 87 168 141 l22 35 18 -48 c36 -95
122 -151 219 -142 70 7 108 35 173 131 11 16 16 13 49 -31 97 -131 267 -137
399 -15 l59 55 0 -42 c0 -41 -3 -45 -179 -219 -144 -142 -184 -187 -207 -235
-78 -165 -15 -316 151 -361 112 -31 223 2 305 91 94 102 124 225 125 514 l1
206 81 108 c101 134 199 308 255 448 l42 108 79 0 79 0 -6 -32 c-41 -233 -45
-407 -12 -515 50 -161 205 -255 323 -195 37 20 88 68 112 109 10 17 12 17 21
1 48 -80 131 -128 220 -128 96 0 205 68 270 169 l16 24 12 -39 c16 -53 67
-113 116 -135 49 -22 127 -24 165 -5 33 18 86 76 96 105 12 38 25 22 25 -29 0
-65 25 -83 124 -88 106 -5 104 -9 116 193 7 126 16 197 35 270 29 111 78 234
106 268 18 21 18 21 19 2 1 -81 23 -357 35 -436 25 -170 60 -221 155 -222 27
0 55 5 63 11 9 8 16 43 21 104 11 167 76 420 136 538 17 34 18 32 22 -210 5
-219 7 -252 28 -315 29 -90 70 -146 130 -179 116 -63 225 -13 280 131 30 77
34 190 7 207 -24 15 -42 -10 -57 -77 -15 -72 -45 -133 -70 -147 -40 -21 -69
-4 -98 58 l-27 57 -3 327 -3 327 -30 25 c-32 27 -127 66 -162 66 -42 0 -65
-28 -105 -133 -47 -121 -79 -230 -102 -347 l-17 -85 -7 45 c-4 25 -11 132 -15
239 l-7 194 -36 33 c-36 33 -90 54 -140 54 -50 0 -90 -73 -164 -302 -15 -49
-31 -88 -35 -88 -5 0 -7 77 -6 171 2 153 0 172 -16 183 -22 17 -132 39 -156
31 -26 -8 -31 -65 -31 -370 0 -283 -6 -322 -56 -416 -56 -102 -118 -115 -159
-34 -19 37 -20 62 -22 395 -1 195 -2 359 -3 363 0 16 -86 47 -130 47 -51 0
-70 -13 -70 -48 0 -22 -3 -21 -50 21 -46 42 -106 67 -158 67 -54 0 -123 -32
-170 -80 -119 -120 -183 -370 -153 -597 8 -67 8 -89 -5 -126 -43 -128 -150
-121 -191 11 -27 85 -23 286 7 417 12 55 25 127 27 160 5 55 3 62 -22 88 -23
22 -36 27 -79 27 -28 -1 -80 -7 -116 -15 -36 -8 -77 -14 -92 -15 -27 0 -28 2
-28 50 0 41 -5 56 -26 77 -23 22 -32 25 -80 21 -86 -7 -134 -66 -134 -165 0
-39 6 -56 30 -85 l30 -36 -29 -90 c-16 -49 -51 -132 -76 -183 -49 -97 -123
-219 -132 -219 -3 0 -4 151 -1 336 5 281 3 337 -9 349 -20 20 -87 37 -136 33
-37 -3 -43 -7 -51 -34 l-9 -31 -40 39 c-47 46 -129 73 -189 64 -161 -26 -274
-208 -299 -481 -6 -66 -7 -138 -1 -182 10 -88 -6 -149 -54 -199 -38 -41 -67
-43 -103 -6 -46 45 -53 121 -49 476 l3 309 -26 19 c-33 25 -142 37 -164 18 -8
-7 -15 -23 -15 -36 0 -23 -2 -22 -41 16 -101 98 -244 88 -348 -25 -85 -92
-130 -228 -150 -453 -7 -80 -16 -117 -39 -165 -35 -75 -81 -130 -123 -148 -30
-12 -33 -11 -59 18 -47 52 -54 129 -46 512 4 184 9 338 12 343 3 4 65 8 138 8
152 0 155 2 164 76 3 32 1 49 -8 54 -8 5 -76 12 -153 16 l-140 7 7 133 c8 155
10 150 -100 178 -71 18 -84 19 -104 6z m922 -687 c15 -14 35 -47 44 -72 24
-68 30 -246 11 -355 -44 -253 -200 -354 -275 -178 -54 125 -44 420 17 540 50
98 138 125 203 65z m945 4 c45 -41 58 -99 58 -262 0 -218 -42 -357 -124 -412
-113 -76 -192 44 -192 292 0 162 31 288 88 355 51 61 121 72 170 27z m1631 6
c60 -38 93 -208 74 -377 -6 -56 -18 -125 -27 -152 -51 -150 -139 -212 -214
-148 -81 68 -102 358 -41 557 39 126 124 175 208 120z m-1558 -1228 c-21 -146
-61 -216 -131 -235 -73 -20 -139 32 -139 109 0 83 70 204 197 340 l78 85 3
-110 c2 -60 -2 -145 -8 -189z"/>
</g>
</svg>
